<svg xmlns="http://www.w3.org/2000/svg" width="64" height="64" viewBox="-2 -2 60 60">
  <g transform="matrix(1.6321,0,0,1.6321,0,0)">
    <path d="M13.39,20.64C13.53,20.5 13.61,20.3 13.61,20.1L13.61,14.22C13.61,13.68 12.96,13.41 12.57,13.79L7.03,20.19C6.89,20.33 6.69,20.41 6.49,20.41L0.76,20.41C0.34,20.41 0,20.75 0,21.17L0,26.46C0,26.88 0.34,27.22 0.76,27.22L6.49,27.22C6.69,27.22 6.89,27.14 7.03,27L13.39,20.64Z" style="fill:#00305D;"/>
    <path d="M19.38,20.59L13.84,27C13.7,27.14 13.5,27.22 13.3,27.22L7.57,27.22C7.15,27.22 6.81,27.56 6.81,27.98L6.81,33.27C6.81,33.69 7.15,34.03 7.57,34.03L13.3,34.03C13.5,34.03 13.7,33.95 13.84,33.81L20.2,27.45C20.34,27.31 20.42,27.11 20.42,26.91L20.42,21.03C20.42,20.49 19.77,20.22 19.38,20.6Z" style="fill:#00305D;"/>
    <path d="M0.76,13.61L6.49,13.61C6.69,13.61 6.88,13.53 7.03,13.39L13.39,7.03C13.53,6.89 13.61,6.69 13.61,6.49L13.61,0.61C13.61,0.07 12.95,-0.2 12.57,0.18L7.03,6.59C6.89,6.73 6.69,6.81 6.49,6.81L0.76,6.81C0.34,6.81 0,7.15 0,7.57L0,12.85C0,13.27 0.34,13.61 0.76,13.61Z" style="fill:#00305D;"/>
    <path d="M13.61,12.85C13.61,13.27 13.95,13.61 14.37,13.61L20.1,13.61C20.3,13.61 20.49,13.53 20.64,13.39L27,7.03C27.14,6.89 27.22,6.69 27.22,6.49L27.22,0.61C27.22,0.07 26.56,-0.2 26.18,0.18L20.64,6.59C20.5,6.73 20.3,6.81 20.1,6.81L14.37,6.81C13.95,6.81 13.61,7.15 13.61,7.57L13.61,12.85Z" style="fill:#00305D;"/>
    <path d="M32.99,7.85L27.45,13.39C27.31,13.53 27.11,13.61 26.91,13.61L21.18,13.61C20.76,13.61 20.42,13.95 20.42,14.37L20.42,19.65C20.42,20.07 20.76,20.41 21.18,20.41L26.91,20.41C27.11,20.41 27.3,20.33 27.45,20.19L33.81,13.83C33.95,13.69 34.03,13.49 34.03,13.29L34.03,8.27C34.03,7.73 33.37,7.46 32.99,7.84Z" style="fill:#00305D;"/>
    <path d="M32.99,20.59L27.45,27C27.31,27.14 27.11,27.22 26.91,27.22L21.18,27.22C20.76,27.22 20.42,27.56 20.42,27.98L20.42,33.26C20.42,33.68 20.76,34.02 21.18,34.02L26.91,34.02C27.11,34.02 27.3,33.94 27.45,33.8L33.81,27.44C33.95,27.3 34.03,27.1 34.03,26.9L34.03,21.02C34.03,20.48 33.37,20.21 32.99,20.59Z" style="fill:#00305D;"/>
  </g>
</svg>
